# xmcd
#
# Track frame offsets: 
#        150
#        16569
#        31264
#        50437
#        67641
#        77467
#        94551
#        106703
#        114416
#        123224
#        139671
#        154290
#        168398
#
# Disc length: 2450 seconds
#
# Revision: 0
# Processed by: cddbd v1.5.2PL0 Copyright (c) Steve Scherf et al.
# Submitted via: ExactAudioCopy v1.2
#
DISCID=8809900d
DTITLE=Marty Christian - Rambling Blues
DYEAR=2018
DGENRE=Blues
TTITLE0=Act Like You Love Me
TTITLE1=Rambling Blues
TTITLE2=Carnival of You
TTITLE3=Country Blues
TTITLE4=Stompdown Boogie
TTITLE5=Now Now
TTITLE6=Sitting on Top of the World
TTITLE7=Russian Tea Biscuit
TTITLE8=The Little Things
TTITLE9=Work for Your Money
TTITLE10=Write Me a Letter
TTITLE11=Nobody Knows You When You’re Down and Out
TTITLE12=Pradines Weekend
EXTD=
EXTT0=
EXTT1=
EXTT2=
EXTT3=
EXTT4=
EXTT5=
EXTT6=
EXTT7=
EXTT8=
EXTT9=
EXTT10=
EXTT11=
EXTT12=
PLAYORDER=
